<svg width="438" height="337" viewBox="0 0 438 337" fill="none" xmlns="http://www.w3.org/2000/svg">
<g clip-path="url(#clip0_9_93)">
<path d="M230.217 12.0174H118.948V133.082H230.217V12.0174Z" fill="#E3E2D3"/>
<path d="M241.433 0.445091H130.164V121.51H241.433V0.445091Z" stroke="#333D51" stroke-width="2" stroke-miterlimit="10"/>
<path d="M141.996 107.852H135.997V113.803H141.996V107.852Z" fill="#D3AC2B"/>
<path d="M150.662 107.852H144.663V113.803H150.662V107.852Z" fill="#333D51"/>
<path d="M159.328 107.852H153.328V113.803H159.328V107.852Z" fill="#575A89"/>
<path d="M226.627 110.436H203.297V111.375H226.627V110.436Z" fill="#333D51"/>
<path d="M226.627 113.251H203.297V114.19H226.627V113.251Z" fill="#333D51"/>
<path d="M226.627 116.066H203.297V117.005H226.627V116.066Z" fill="#333D51"/>
<path d="M185.799 21.8094V31.6014C191.655 31.6014 197.381 33.3242 202.25 36.5521C207.12 39.78 210.915 44.3679 213.157 49.7356C215.398 55.1034 215.984 61.0099 214.842 66.7083C213.699 72.4067 210.879 77.641 206.737 81.7493L213.717 88.6732C219.239 83.1955 222.999 76.2164 224.523 68.6186C226.046 61.0208 225.264 53.1454 222.276 45.9884C219.287 38.8314 214.227 32.7142 207.734 28.4104C201.241 24.1066 193.608 21.8094 185.799 21.8094Z" fill="#333D51"/>
<path d="M213.717 88.6732L206.738 81.7493C201.675 86.7726 194.949 89.8055 187.805 90.286C180.66 90.7665 173.583 88.6621 167.883 84.3627L161.909 92.161C169.51 97.892 178.947 100.697 188.472 100.055C197.998 99.4141 206.966 95.3705 213.717 88.6732Z" fill="#575A89"/>
<path d="M156.187 60.9773C156.187 53.1863 159.307 45.7145 164.86 40.2054C170.413 34.6963 177.945 31.6014 185.799 31.6014V21.8094C177.534 21.8093 169.477 24.3824 162.764 29.1661C156.051 33.9497 151.021 40.7026 148.382 48.4729C145.744 56.2432 145.63 64.639 148.056 72.477C150.483 80.315 155.328 87.1998 161.909 92.161L167.883 84.3627C164.245 81.6255 161.296 78.0897 159.267 74.0324C157.238 69.9751 156.184 65.5066 156.187 60.9773Z" fill="#D3AC2B"/>
<path d="M259.883 256.773C256.93 256.773 254.006 256.195 251.277 255.074C248.549 253.953 246.07 252.31 243.982 250.238C241.894 248.167 240.237 245.708 239.107 243.001C237.977 240.294 237.395 237.393 237.395 234.464V208.48C237.395 156.49 279.88 114.344 332.288 114.344C384.696 114.344 427.181 156.49 427.181 208.48V228.907C427.181 232.566 426.454 236.19 425.043 239.571C423.631 242.952 421.562 246.023 418.954 248.611C416.345 251.198 413.249 253.251 409.841 254.651C406.433 256.052 402.78 256.773 399.091 256.773" fill="#E3E2D3"/>
<path d="M408.513 284.813V283.923C415.841 283.915 422.867 281.023 428.049 275.883C433.231 270.742 436.146 263.772 436.154 256.503V203.139C436.154 151.477 393.787 109.448 341.71 109.448C289.633 109.448 247.266 151.477 247.266 203.139V262.059C247.272 267.856 249.597 273.413 253.728 277.512C257.86 281.611 263.462 283.916 269.305 283.923V284.813C263.224 284.806 257.394 282.407 253.094 278.141C248.794 273.875 246.375 268.092 246.369 262.059V203.139C246.369 150.987 289.139 108.558 341.71 108.558C394.281 108.558 437.051 150.987 437.051 203.139V256.503C437.043 264.008 434.033 271.204 428.683 276.512C423.333 281.819 416.079 284.805 408.513 284.813Z" fill="#333D51"/>
<path d="M437.5 250.541H245.92V328.877H437.5V250.541Z" fill="#333D51"/>
<path d="M370.986 170.022L352.702 182.917L365.7 201.055L383.984 188.16L370.986 170.022Z" fill="#D3AC2B"/>
<path d="M372.457 165.162L354.173 178.056L367.171 196.194L385.455 183.3L372.457 165.162Z" stroke="#333D51" stroke-width="2" stroke-miterlimit="10"/>
<path d="M336.999 161.523C342.203 161.523 346.421 157.339 346.421 152.176C346.421 147.014 342.203 142.83 336.999 142.83C331.795 142.83 327.577 147.014 327.577 152.176C327.577 157.339 331.795 161.523 336.999 161.523Z" fill="#D3AC2B"/>
<path d="M334.307 160.188C339.511 160.188 343.729 156.003 343.729 150.841C343.729 145.679 339.511 141.494 334.307 141.494C329.103 141.494 324.885 145.679 324.885 150.841C324.885 156.003 329.103 160.188 334.307 160.188Z" stroke="#333D51" stroke-width="2" stroke-miterlimit="10"/>
<path d="M309.152 189.528L320.429 195.967L331.705 202.406L320.445 208.875L309.186 215.343L309.169 202.436L309.152 189.528Z" fill="#D3AC2B"/>
<path d="M307.34 194.417L318.616 200.856L329.893 207.295L318.633 213.764L307.374 220.232L307.357 207.324L307.34 194.417Z" stroke="#333D51" stroke-width="2" stroke-miterlimit="10"/>
<path d="M263.164 168.566C264.874 162.506 268.033 156.946 272.373 152.356C276.712 147.767 282.104 144.285 288.091 142.205C289.72 141.649 289.02 139.069 287.376 139.63C280.944 141.842 275.147 145.564 270.48 150.479C265.812 155.394 262.411 161.356 260.568 167.856C260.107 169.515 262.703 170.223 263.164 168.566Z" fill="#EBEBEB"/>
<path d="M258.059 183.15C259.791 183.15 259.794 180.48 258.059 180.48C256.326 180.48 256.324 183.15 258.059 183.15Z" fill="#EBEBEB"/>
<path d="M146.25 155.572L104.34 142.38L88.0561 193.289L129.966 206.482L146.25 155.572Z" fill="#E3E2D3"/>
<path d="M126.941 159.251L110.485 154.071L110.196 154.974L126.652 160.154L126.941 159.251Z" fill="#333D51"/>
<path d="M133.9 163.277L109.952 155.739L109.663 156.642L133.612 164.18L133.9 163.277Z" fill="#333D51"/>
<path d="M125.119 164.948L108.663 159.768L108.374 160.671L124.83 165.851L125.119 164.948Z" fill="#333D51"/>
<path d="M122.986 171.617L106.53 166.437L106.241 167.34L122.697 172.52L122.986 171.617Z" fill="#333D51"/>
<path d="M132.079 168.973L108.13 161.435L107.841 162.338L131.79 169.877L132.079 168.973Z" fill="#333D51"/>
<path d="M131.545 170.641L107.597 163.102L107.308 164.005L131.256 171.544L131.545 170.641Z" fill="#333D51"/>
<path d="M131.012 172.308L107.063 164.769L106.774 165.672L130.723 173.211L131.012 172.308Z" fill="#333D51"/>
<path d="M113.855 173.177L105.241 170.466L104.486 172.828L113.099 175.539L113.855 173.177Z" fill="#D3AC2B"/>
<path d="M59.2752 337C91.7358 337 118.05 333.612 118.05 329.433C118.05 325.255 91.7358 321.867 59.2752 321.867C26.8145 321.867 0.5 325.255 0.5 329.433C0.5 333.612 26.8145 337 59.2752 337Z" fill="#333D51"/>
<path d="M31.5132 119.963L29.5608 124.563L31.7572 154.342C31.7572 154.342 30.537 156.037 31.7572 157.247C32.9774 158.458 32.7334 158.942 32.7334 158.942C32.7334 158.942 30.781 158.942 31.7572 160.394C32.7334 161.847 32.7334 162.573 32.7334 162.573L32.2453 164.026C32.2453 164.026 33.2215 165.237 33.2215 166.205C33.2215 167.173 39.5667 196.952 39.5667 196.952L45.6679 185.089L42.2512 137.879L31.5132 119.963Z" fill="#D3AC2B"/>
<path d="M94.1624 195.689C94.1624 195.689 107.487 195.155 111.736 199.818C115.984 204.481 95.0446 201.108 93.8603 199.794C92.6759 198.48 94.1624 195.689 94.1624 195.689Z" fill="#FFB9B9"/>
<path d="M28.3405 313.161L25.656 321.877C25.656 321.877 21.7513 330.35 27.1203 331.561C32.4893 332.771 37.6143 328.171 37.6143 328.171V322.361L39.5667 313.161H28.3405Z" fill="#242B38"/>
<path d="M72.269 313.161C72.269 313.161 71.0488 329.624 73.7333 330.592C76.4178 331.561 85.9356 331.803 86.1797 330.592C86.4238 329.382 89.3523 328.171 87.1559 326.477C84.9595 324.782 83.4952 314.856 83.4952 314.856L72.269 313.161Z" fill="#242B38"/>
<path d="M47.6203 157.247V164.51C47.6203 164.51 39.5667 181.215 36.6381 207.604C33.7095 233.994 23.7036 314.372 26.1441 315.824C28.5846 317.277 54.9417 318.245 55.6738 316.308C56.4059 314.372 57.1381 257.72 57.1381 257.72L66.1678 217.773C66.1678 217.773 67.8762 232.057 69.3404 234.478C70.8047 236.899 66.9 315.582 69.3404 316.793C71.7809 318.003 104.727 320.182 104.239 316.308C103.751 312.435 92.769 207.362 92.769 207.362C92.769 207.362 87.1559 157.731 85.4476 157.247C83.7393 156.763 68.1202 156.279 65.6798 156.763C63.2393 157.247 47.6203 157.247 47.6203 157.247Z" fill="#242B38"/>
<path d="M66.1679 97.2058C73.8505 97.2058 80.0786 91.0274 80.0786 83.4059C80.0786 75.7845 73.8505 69.6061 66.1679 69.6061C58.4852 69.6061 52.2572 75.7845 52.2572 83.4059C52.2572 91.0274 58.4852 97.2058 66.1679 97.2058Z" fill="#FFB9B9"/>
<path d="M69.0965 95.0268C69.0965 95.0268 62.0191 105.921 63.7275 108.827C65.4358 111.732 45.668 105.921 45.668 105.921C45.668 105.921 57.6263 91.3953 57.3822 89.7006C57.1382 88.0059 69.0965 95.0268 69.0965 95.0268Z" fill="#FFB9B9"/>
<path d="M83.7392 111.248C83.7392 111.248 70.8047 107.132 69.0964 105.437C68.0005 104.327 67.0194 103.11 66.1678 101.806C66.1678 101.806 50.5488 99.6268 50.0608 99.6268C49.5727 99.6268 45.9119 103.985 44.9358 104.953C43.9596 105.921 31.5132 112.458 31.5132 114.153C31.5132 115.848 29.5608 124.563 29.5608 124.563C29.5608 124.563 33.9536 133.521 36.6382 135.458C39.3227 137.395 40.0548 136.911 40.2989 140.058C40.5429 143.205 43.9596 148.289 43.9596 148.289C43.9596 148.289 46.156 153.858 45.6679 155.552C45.1798 157.247 42.9834 158.7 48.1084 158.216C53.2334 157.731 78.6143 159.184 78.6143 156.521C78.6143 153.858 73.7333 128.437 73.7333 128.437L83.7392 111.248Z" fill="#D3AC2B"/>
<path d="M79.1024 111.732L83.7393 111.248C83.7393 111.248 85.4476 112.216 85.6916 121.658C85.9357 131.1 85.9357 153.858 87.644 155.795C89.3524 157.731 96.4297 187.752 96.4297 187.752C96.4297 187.752 98.3821 188.236 98.3821 189.931C98.3821 191.626 100.579 193.078 99.6023 195.015C98.6261 196.952 100.579 196.468 99.3583 197.678C98.138 198.889 92.2809 201.31 92.0369 199.857C91.7928 198.405 92.769 198.162 91.7928 197.678C90.8166 197.194 90.8166 196.952 90.5726 195.257C90.3285 193.562 88.1321 191.868 88.3762 191.141C88.6202 190.415 77.6381 169.352 77.6381 168.626C77.6381 167.9 76.9059 165.237 75.9297 164.752C74.9536 164.268 73.4893 163.784 74.2214 162.573C74.9536 161.363 72.269 125.048 72.269 125.048L79.1024 111.732Z" fill="#D3AC2B"/>
<path d="M77.9312 74.6543C73.6655 70.0607 66.9665 67.6226 60.8232 68.9889C54.6799 70.3553 49.5069 75.7661 49.0265 81.9935C48.9282 83.2673 49.0101 84.5685 48.6778 85.8028C48.1189 87.8789 46.456 89.5244 45.8698 91.593C45.4771 92.9785 45.5935 94.4703 45.1773 95.8491C44.4083 98.3967 42.0282 100.058 40.2141 102.016C39.4794 102.733 38.9339 103.619 38.6253 104.595C38.4658 105.461 38.4254 106.343 38.5051 107.22C38.5816 111.943 36.8116 116.511 33.5664 119.968C35.4745 118.562 37.5361 117.373 39.7122 116.423C38.6336 119.831 39.6196 123.862 42.3335 126.209C45.0474 128.556 49.3942 128.92 52.3285 126.851C54.0717 125.622 55.2039 123.735 56.2853 121.905L60.3798 114.974C61.1204 113.721 61.8936 112.431 63.077 111.575C64.0174 110.894 65.16 110.532 66.1066 109.86C68.4945 108.165 69.1356 104.848 68.691 101.969C68.2464 99.0895 66.9412 96.4163 66.1926 93.5998C65.6006 91.3721 65.4148 88.8192 66.7467 86.932C68.5147 84.4269 72.1481 84.1072 74.5505 82.191C75.455 81.4696 75.859 80.5918 76.5068 79.6888C77.1049 78.8551 77.2572 79.1539 78.1839 79.1158C80.7283 79.0112 78.8741 75.6696 77.9312 74.6543Z" fill="#242B38"/>
<path d="M65.7808 90.8653C66.4003 90.8653 66.9025 89.6696 66.9025 88.1947C66.9025 86.7198 66.4003 85.5242 65.7808 85.5242C65.1614 85.5242 64.6592 86.7198 64.6592 88.1947C64.6592 89.6696 65.1614 90.8653 65.7808 90.8653Z" fill="#FFB9B9"/>
<path d="M189.388 280.807C197.317 280.807 203.745 274.431 203.745 266.565C203.745 258.698 197.317 252.322 189.388 252.322C181.459 252.322 175.031 258.698 175.031 266.565C175.031 274.431 181.459 280.807 189.388 280.807Z" fill="#E3E2D3"/>
<path d="M45.8152 36.0079C53.7445 36.0079 60.1725 29.6312 60.1725 21.765C60.1725 13.8989 53.7445 7.52216 45.8152 7.52216C37.8859 7.52216 31.4579 13.8989 31.4579 21.765C31.4579 29.6312 37.8859 36.0079 45.8152 36.0079Z" fill="#E3E2D3"/>
<path d="M346.421 69.3897C354.35 69.3897 360.778 63.0129 360.778 55.1468C360.778 47.2807 354.35 40.9039 346.421 40.9039C338.492 40.9039 332.064 47.2807 332.064 55.1468C332.064 63.0129 338.492 69.3897 346.421 69.3897Z" fill="#E3E2D3"/>
</g>
<defs>
<clipPath id="clip0_9_93">
<rect width="437" height="337" fill="white" transform="translate(0.5)"/>
</clipPath>
</defs>
</svg>
