<svg width="576" height="472" viewBox="0 0 576 472" fill="none" xmlns="http://www.w3.org/2000/svg">
<g clip-path="url(#clip0_33_1278)">
<path d="M327.977 230.794C340.938 230.794 351.445 219.707 351.445 206.031C351.445 192.355 340.938 181.269 327.977 181.269C315.016 181.269 304.509 192.355 304.509 206.031C304.509 219.707 315.016 230.794 327.977 230.794Z" fill="#E3E2D3"/>
<path d="M385.493 237.852L360.969 211.975C362.848 208.89 364.122 205.438 364.715 201.824C365.307 198.21 365.206 194.507 364.417 190.934C363.629 187.362 362.168 183.993 360.123 181.027C358.078 178.062 355.489 175.559 352.511 173.668C346.902 170.133 340.24 168.949 333.843 170.351C327.446 171.753 321.782 175.639 317.972 181.238C314.466 186.425 312.782 192.739 313.21 199.094C313.637 205.449 316.15 211.449 320.316 216.061C324.481 220.673 330.04 223.61 336.035 224.367C342.03 225.123 348.088 223.653 353.167 220.207L377.692 246.084C378.727 247.175 380.13 247.787 381.592 247.787C383.055 247.786 384.457 247.173 385.491 246.082C386.525 244.991 387.107 243.511 387.107 241.968C387.107 240.424 386.527 238.944 385.493 237.852ZM352.252 211.009C349.213 214.216 345.214 216.211 340.937 216.656C336.661 217.1 332.37 215.966 328.797 213.447C325.223 210.928 322.589 207.179 321.341 202.84C320.093 198.501 320.31 193.839 321.955 189.65C323.6 185.461 326.57 182.002 330.36 179.865C334.15 177.727 338.525 177.042 342.74 177.927C346.955 178.812 350.749 181.211 353.476 184.716C356.202 188.221 357.692 192.616 357.692 197.15C357.695 199.725 357.216 202.274 356.282 204.653C355.349 207.031 353.979 209.191 352.252 211.009Z" fill="#333D51"/>
<path d="M563.269 276.023C625.988 349.208 444.177 454.679 297.269 454.679C150.36 454.679 48.7229 372.958 31.2678 276.023C-11.0549 40.9877 391.867 -108.399 297.269 97.3661C159.38 397.293 513.877 218.387 563.269 276.023Z" fill="#E3E2D3"/>
<path d="M535.129 293.343C597.848 366.529 416.036 472 269.128 472C122.22 472 20.5821 390.279 3.12696 293.343C-39.1957 58.3084 363.727 -91.0785 269.128 114.687C131.239 414.614 485.736 235.708 535.129 293.343Z" fill="#333D51"/>
<path d="M87.702 121.756C43.6924 119.711 9.56938 109.695 10.0177 98.9517C10.2864 92.511 22.7416 87.3318 44.1893 84.7428C44.266 84.733 44.3439 84.7393 44.4183 84.7613C44.4928 84.7834 44.5623 84.8208 44.623 84.8713C44.6837 84.9218 44.7343 84.9846 44.772 85.0558C44.8096 85.1271 44.8335 85.2055 44.8423 85.2866C44.8511 85.3676 44.8446 85.4497 44.8232 85.5281C44.8018 85.6065 44.7659 85.6797 44.7176 85.7434C44.6693 85.8071 44.6095 85.8601 44.5417 85.8993C44.4739 85.9385 44.3994 85.9632 44.3225 85.9719C24.1188 88.4111 11.4228 93.4055 11.1891 99.0061C10.7837 108.721 45.8458 118.573 87.7535 120.52C129.661 122.467 165.408 115.905 165.814 106.19C166.048 100.566 153.739 94.3958 133.688 90.0886C133.612 90.0726 133.54 90.041 133.476 89.9957C133.412 89.9503 133.357 89.892 133.314 89.8242C133.272 89.7564 133.242 89.6803 133.227 89.6005C133.213 89.5206 133.213 89.4384 133.228 89.3586C133.244 89.2789 133.274 89.2031 133.317 89.1357C133.36 89.0682 133.416 89.0105 133.48 88.9656C133.545 88.9208 133.617 88.8899 133.692 88.8745C133.768 88.8592 133.846 88.8598 133.922 88.8762C155.204 93.448 167.255 99.7784 166.985 106.244C166.537 116.987 131.712 123.801 87.702 121.756Z" fill="#D3AC2B"/>
<path d="M48.615 123.555C52.2967 130.935 57.7504 137.165 64.4307 141.622C71.1109 146.079 78.7834 148.607 86.6803 148.953C94.5773 149.299 102.422 147.451 109.429 143.593C116.437 139.735 122.361 134.003 126.609 126.971C100.572 127.341 74.5342 126.201 48.615 123.555Z" fill="#D3AC2B"/>
<path d="M131.478 113.959C133.694 106.946 134.332 99.4857 133.343 92.1678C132.353 84.8498 129.763 77.8753 125.778 71.7962C121.792 65.7171 116.52 60.7003 110.379 57.1428C104.238 53.5852 97.3966 51.5847 90.3961 51.2995C83.3957 51.0142 76.4284 52.4521 70.0457 55.4993C63.663 58.5465 58.0401 63.1195 53.622 68.8561C49.2039 74.5928 46.1118 81.3358 44.5906 88.5514C43.0693 95.767 43.1606 103.257 44.8572 110.429C73.4646 115.553 102.581 116.74 131.478 113.959Z" fill="#D3AC2B"/>
<path d="M98.9815 82.0267C101.896 82.0267 104.258 79.5341 104.258 76.4593C104.258 73.3845 101.896 70.8919 98.9815 70.8919C96.0675 70.8919 93.7051 73.3845 93.7051 76.4593C93.7051 79.5341 96.0675 82.0267 98.9815 82.0267Z" fill="#EBEBEB"/>
<path d="M71.8256 103.672C76.6824 103.672 80.6196 99.5175 80.6196 94.3928C80.6196 89.2682 76.6824 85.1139 71.8256 85.1139C66.9688 85.1139 63.0316 89.2682 63.0316 94.3928C63.0316 99.5175 66.9688 103.672 71.8256 103.672Z" fill="#EBEBEB"/>
<path d="M204.551 94.5825C207.789 94.5825 210.414 91.813 210.414 88.3967C210.414 84.9803 207.789 82.2108 204.551 82.2108C201.314 82.2108 198.689 84.9803 198.689 88.3967C198.689 91.813 201.314 94.5825 204.551 94.5825Z" fill="#D3AC2B"/>
<path d="M72.055 283.874C73.9978 283.874 75.5727 282.212 75.5727 280.162C75.5727 278.113 73.9978 276.451 72.055 276.451C70.1123 276.451 68.5374 278.113 68.5374 280.162C68.5374 282.212 70.1123 283.874 72.055 283.874Z" fill="#E3E2D3"/>
<path d="M318.287 411.306C320.23 411.306 321.805 409.644 321.805 407.594C321.805 405.544 320.23 403.882 318.287 403.882C316.344 403.882 314.77 405.544 314.77 407.594C314.77 409.644 316.344 411.306 318.287 411.306Z" fill="#E3E2D3"/>
<path d="M89.0568 212.117C90.0282 212.117 90.8156 211.286 90.8156 210.261C90.8156 209.236 90.0282 208.405 89.0568 208.405C88.0854 208.405 87.2979 209.236 87.2979 210.261C87.2979 211.286 88.0854 212.117 89.0568 212.117Z" fill="#E3E2D3"/>
<path d="M234.451 350.683C235.422 350.683 236.21 349.852 236.21 348.827C236.21 347.802 235.422 346.971 234.451 346.971C233.48 346.971 232.692 347.802 232.692 348.827C232.692 349.852 233.48 350.683 234.451 350.683Z" fill="#E3E2D3"/>
<path d="M498.858 332.743C499.829 332.743 500.616 331.913 500.616 330.888C500.616 329.863 499.829 329.032 498.858 329.032C497.886 329.032 497.099 329.863 497.099 330.888C497.099 331.913 497.886 332.743 498.858 332.743Z" fill="#E3E2D3"/>
<path d="M416.194 387.799C417.165 387.799 417.953 386.968 417.953 385.943C417.953 384.918 417.165 384.087 416.194 384.087C415.222 384.087 414.435 384.918 414.435 385.943C414.435 386.968 415.222 387.799 416.194 387.799Z" fill="#E3E2D3"/>
<path d="M330.013 320.99C330.984 320.99 331.771 320.159 331.771 319.134C331.771 318.109 330.984 317.278 330.013 317.278C329.041 317.278 328.254 318.109 328.254 319.134C328.254 320.159 329.041 320.99 330.013 320.99Z" fill="#E3E2D3"/>
<path d="M218.622 137.885C219.593 137.885 220.381 137.054 220.381 136.029C220.381 135.004 219.593 134.173 218.622 134.173C217.65 134.173 216.863 135.004 216.863 136.029C216.863 137.054 217.65 137.885 218.622 137.885Z" fill="#E3E2D3"/>
<path d="M232.692 46.332C233.664 46.332 234.451 45.5011 234.451 44.4761C234.451 43.4512 233.664 42.6203 232.692 42.6203C231.721 42.6203 230.933 43.4512 230.933 44.4761C230.933 45.5011 231.721 46.332 232.692 46.332Z" fill="#E3E2D3"/>
<path d="M224.484 431.719C225.456 431.719 226.243 430.888 226.243 429.863C226.243 428.839 225.456 428.008 224.484 428.008C223.513 428.008 222.726 428.839 222.726 429.863C222.726 430.888 223.513 431.719 224.484 431.719Z" fill="#E3E2D3"/>
<path d="M137.717 392.748C138.688 392.748 139.476 391.917 139.476 390.892C139.476 389.867 138.688 389.036 137.717 389.036C136.746 389.036 135.958 389.867 135.958 390.892C135.958 391.917 136.746 392.748 137.717 392.748Z" fill="#E3E2D3"/>
<path d="M412.676 325.939C413.648 325.939 414.435 325.108 414.435 324.083C414.435 323.058 413.648 322.227 412.676 322.227C411.705 322.227 410.917 323.058 410.917 324.083C410.917 325.108 411.705 325.939 412.676 325.939Z" fill="#E3E2D3"/>
<path d="M86.9866 144.628C89.9007 144.628 92.263 142.135 92.263 139.06C92.263 135.986 89.9007 133.493 86.9866 133.493C84.0725 133.493 81.7102 135.986 81.7102 139.06C81.7102 142.135 84.0725 144.628 86.9866 144.628Z" fill="#EBEBEB"/>
<path d="M206.31 224.489C206.31 241.117 181.945 279.863 174.825 290.831C174.61 291.163 174.322 291.434 173.985 291.622C173.649 291.809 173.274 291.907 172.893 291.907C172.512 291.907 172.137 291.809 171.801 291.622C171.464 291.434 171.176 291.163 170.961 290.831C163.841 279.863 139.476 241.117 139.476 224.489C139.476 219.858 140.34 215.273 142.02 210.995C143.699 206.717 146.16 202.83 149.263 199.556C152.367 196.282 156.05 193.684 160.105 191.912C164.159 190.14 168.505 189.228 172.893 189.228C177.281 189.228 181.627 190.14 185.681 191.912C189.736 193.684 193.419 196.282 196.523 199.556C199.626 202.83 202.087 206.717 203.767 210.995C205.446 215.273 206.31 219.858 206.31 224.489Z" fill="#EBEBEB"/>
<path d="M172.893 239.954C182.283 239.954 189.895 231.922 189.895 222.014C189.895 212.107 182.283 204.075 172.893 204.075C163.503 204.075 155.891 212.107 155.891 222.014C155.891 231.922 163.503 239.954 172.893 239.954Z" fill="#D3AC2B"/>
<path d="M172.6 311.092C183.447 311.092 192.24 309.292 192.24 307.072C192.24 304.851 183.447 303.051 172.6 303.051C161.753 303.051 152.96 304.851 152.96 307.072C152.96 309.292 161.753 311.092 172.6 311.092Z" fill="#EBEBEB"/>
<path d="M478.894 196.665C478.746 196.969 478.62 197.285 478.518 197.61L450.505 205.823L445.456 200.611L437.005 207.621L445.092 217.766C445.745 218.585 446.633 219.159 447.622 219.401C448.61 219.643 449.647 219.54 450.575 219.108L480.836 205.013C481.863 205.765 483.082 206.169 484.332 206.172C485.582 206.175 486.803 205.776 487.832 205.029C488.862 204.282 489.652 203.222 490.097 201.989C490.541 200.757 490.62 199.411 490.322 198.13C490.024 196.85 489.364 195.695 488.429 194.82C487.494 193.945 486.329 193.392 485.088 193.232C483.847 193.073 482.59 193.316 481.484 193.93C480.377 194.543 479.474 195.497 478.894 196.665Z" fill="#FFB8B8"/>
<path d="M449.518 206.305L439.003 214.94C438.704 215.186 438.358 215.361 437.989 215.453C437.62 215.545 437.237 215.551 436.865 215.473C436.493 215.394 436.142 215.232 435.835 214.998C435.528 214.763 435.272 214.461 435.086 214.113L428.551 201.91C427.368 200.287 426.843 198.236 427.091 196.206C427.339 194.176 428.34 192.333 429.874 191.08C431.408 189.828 433.351 189.268 435.276 189.525C437.2 189.781 438.95 190.833 440.141 192.449L449.719 202.095C449.994 202.371 450.208 202.707 450.348 203.078C450.489 203.45 450.551 203.849 450.532 204.249C450.513 204.648 450.412 205.039 450.237 205.393C450.062 205.748 449.817 206.059 449.518 206.305Z" fill="#D3AC2B"/>
<path d="M481.58 192.58L492.244 197.642C492.69 197.854 493.038 198.245 493.212 198.728C493.386 199.211 493.371 199.747 493.17 200.218L491.907 203.179C492.056 203.25 492.172 203.38 492.229 203.541C492.287 203.702 492.282 203.88 492.216 204.037L491.711 205.222C491.644 205.378 491.52 205.501 491.368 205.562C491.215 205.623 491.046 205.618 490.897 205.547L490.392 206.732C490.541 206.803 490.657 206.933 490.714 207.094C490.772 207.255 490.767 207.433 490.701 207.59L490.196 208.775C490.129 208.931 490.005 209.054 489.853 209.115C489.7 209.176 489.531 209.171 489.382 209.1L482.565 225.089C482.364 225.56 481.994 225.928 481.536 226.111C481.078 226.294 480.57 226.278 480.124 226.066L469.461 221.004C469.014 220.792 468.666 220.402 468.492 219.919C468.318 219.436 468.334 218.9 468.535 218.428L479.139 193.558C479.34 193.086 479.71 192.719 480.168 192.535C480.626 192.352 481.134 192.368 481.58 192.58Z" fill="#333D51"/>
<path d="M471.397 219.429L479.951 223.494C480.38 223.696 480.867 223.711 481.306 223.536C481.745 223.361 482.101 223.009 482.296 222.559L486.246 213.286L487.619 210.072L491.194 201.682C491.385 201.231 491.399 200.718 491.233 200.256C491.067 199.794 490.735 199.419 490.308 199.215L487.619 197.936L481.748 195.15C481.319 194.948 480.832 194.934 480.394 195.11C479.956 195.287 479.601 195.64 479.409 196.092L475.951 204.202L472.012 213.435L470.511 216.961C470.319 217.413 470.305 217.926 470.471 218.388C470.637 218.851 470.97 219.225 471.397 219.429Z" fill="#F4F3EA"/>
<path d="M453.523 334.318L460.71 334.317L464.13 305.065L453.522 305.065L453.523 334.318Z" fill="#FFB8B8"/>
<path d="M451.69 331.842L465.844 331.841C467.029 331.841 468.203 332.087 469.297 332.565C470.391 333.044 471.386 333.745 472.223 334.629C473.061 335.512 473.726 336.562 474.179 337.716C474.632 338.871 474.866 340.109 474.866 341.359V341.668L451.69 341.669L451.69 331.842Z" fill="#242B38"/>
<path d="M472.283 332.462L479.471 332.461L482.891 303.209L472.282 303.21L472.283 332.462Z" fill="#FFB8B8"/>
<path d="M470.45 329.986L484.605 329.985C485.79 329.985 486.963 330.231 488.058 330.71C489.152 331.188 490.146 331.889 490.984 332.773C491.822 333.657 492.486 334.706 492.939 335.861C493.393 337.016 493.626 338.253 493.626 339.503V339.812L470.451 339.813L470.45 329.986Z" fill="#242B38"/>
<path d="M421.283 265.675C422.814 270.465 425.719 274.634 429.595 277.605C433.47 280.576 438.126 282.203 442.916 282.26L443.28 282.266C446.99 282.377 451.346 281.115 455.62 279.303C464.063 275.721 472.171 269.987 474.322 268.409L470.676 305.395L469.198 320.39C469.161 320.778 469.201 321.17 469.316 321.54C469.431 321.911 469.618 322.252 469.866 322.542C470.113 322.831 470.415 323.063 470.753 323.222C471.09 323.381 471.455 323.464 471.825 323.464H480.929C481.513 323.465 482.081 323.261 482.543 322.885C483.006 322.509 483.337 321.982 483.486 321.386L498.517 260.98C498.968 259.172 499.005 257.276 498.623 255.451C498.242 253.625 497.454 251.921 496.325 250.48C495.196 249.04 493.757 247.904 492.129 247.166C490.501 246.428 488.73 246.11 486.962 246.239L455.738 248.496L457.918 239.292L430.047 237.337L429.965 237.399C429.297 237.912 428.646 238.45 428.025 239.013C426.471 240.4 425.094 241.993 423.927 243.752C421.839 246.908 420.508 250.552 420.048 254.37C419.587 258.188 420.011 262.067 421.283 265.675Z" fill="#242B38"/>
<path d="M421.283 265.675C422.814 270.465 425.719 274.634 429.595 277.605C433.47 280.576 438.126 282.203 442.916 282.26C447.497 279.813 451.917 277.046 456.148 273.977L455.62 279.303L451.024 325.957C450.987 326.345 451.027 326.737 451.142 327.108C451.257 327.478 451.444 327.819 451.691 328.109C451.939 328.399 452.241 328.63 452.578 328.789C452.916 328.948 453.281 329.031 453.651 329.032H462.755C463.339 329.032 463.907 328.828 464.369 328.452C464.831 328.076 465.163 327.549 465.311 326.953L470.676 305.395L480.343 266.547C480.794 264.739 480.83 262.844 480.449 261.018C480.068 259.192 479.28 257.488 478.151 256.048C477.021 254.607 475.583 253.471 473.955 252.733C472.327 251.996 470.556 251.678 468.788 251.806L437.563 254.064L439.744 244.859L423.927 243.752C421.839 246.908 420.508 250.552 420.048 254.37C419.587 258.188 420.011 262.067 421.283 265.675Z" fill="#242B38"/>
<path d="M427.985 241.147L427.775 241.121L422.912 215.891C422.871 215.672 418.895 193.91 431.083 182.533L431.295 180.976C431.349 180.578 431.485 180.197 431.692 179.859C431.9 179.521 432.174 179.235 432.497 179.019C432.819 178.804 433.182 178.666 433.56 178.613C433.939 178.56 434.323 178.595 434.688 178.714L446.17 182.472C446.82 182.683 447.367 183.151 447.697 183.779C448.027 184.406 448.114 185.144 447.94 185.838L446.823 190.318C448.371 192.235 466.589 215.378 460.243 233.208L457.401 244.932L427.985 241.147Z" fill="#D3AC2B"/>
<path d="M475.661 221.457C475.386 221.639 475.125 221.844 474.881 222.069L446.801 214.115L444.965 206.919L434.309 208.422L436.386 221.496C436.554 222.552 437.041 223.522 437.776 224.261C438.511 225 439.453 225.467 440.461 225.593L473.311 229.687C473.833 230.885 474.688 231.888 475.763 232.56C476.837 233.233 478.081 233.545 479.328 233.454C480.574 233.363 481.765 232.873 482.742 232.051C483.719 231.228 484.435 230.111 484.795 228.849C485.156 227.586 485.143 226.238 484.76 224.983C484.376 223.728 483.64 222.626 482.648 221.823C481.656 221.021 480.457 220.556 479.208 220.49C477.96 220.425 476.723 220.762 475.661 221.457Z" fill="#FFB8B8"/>
<path d="M445.719 214L432.504 215.797C432.128 215.848 431.746 215.813 431.383 215.694C431.021 215.575 430.688 215.375 430.406 215.108C430.123 214.841 429.899 214.513 429.748 214.147C429.596 213.78 429.522 213.383 429.529 212.983L429.781 198.969C429.544 196.937 430.08 194.89 431.272 193.275C432.463 191.66 434.213 190.61 436.138 190.354C438.063 190.098 440.005 190.659 441.538 191.912C443.072 193.165 444.072 195.009 444.32 197.039L447.921 210.483C448.024 210.868 448.047 211.272 447.989 211.667C447.93 212.063 447.792 212.44 447.583 212.774C447.374 213.108 447.099 213.39 446.778 213.602C446.456 213.813 446.095 213.949 445.719 214Z" fill="#D3AC2B"/>
<path d="M441.999 175.289C449.951 175.289 456.398 168.487 456.398 160.096C456.398 151.705 449.951 144.902 441.999 144.902C434.046 144.902 427.6 151.705 427.6 160.096C427.6 168.487 434.046 175.289 441.999 175.289Z" fill="#FFB8B8"/>
<path d="M441.241 161.365L439.439 157.901C436.024 172.581 442.056 184.731 442.056 184.731L418.644 173.225L418.867 169.142L416.551 171.916L413.222 169.98L412.783 167.332L410.27 167.989L419.441 150.429C428.342 133.718 441.283 140.098 441.283 140.098C461.87 139.066 459.356 160.497 459.356 160.497L441.241 161.365Z" fill="#242B38"/>
<path d="M277.328 274.588C280.648 272.342 276.61 259.447 268.31 245.785C260.01 232.123 250.59 222.869 247.27 225.114C243.95 227.36 247.987 240.255 256.287 253.917C264.588 267.579 274.008 276.834 277.328 274.588Z" fill="#333D51"/>
</g>
<defs>
<clipPath id="clip0_33_1278">
<rect width="576" height="472" fill="white"/>
</clipPath>
</defs>
</svg>
