<svg width="140" height="132" viewBox="0 0 140 132" fill="none" xmlns="http://www.w3.org/2000/svg">
<mask id="mask0_136_2" style="mask-type:luminance" maskUnits="userSpaceOnUse" x="9" y="31" width="51" height="55">
<path d="M9.9342 31.2427H59.7859V85.7959H9.9342V31.2427Z" fill="white"/>
</mask>
<g mask="url(#mask0_136_2)">
<path fill-rule="evenodd" clip-rule="evenodd" d="M9.9342 31.2427H21.9815C21.8459 31.8532 21.7686 32.5064 21.7686 33.2159V75.3486C21.6869 80.3261 25.779 80.135 29.4773 79.8394C39.4567 79.0419 49.5688 81.5952 59.7377 85.6102V85.7959H9.9342V31.2427Z" fill="#D3AC2B"/>
</g>
<mask id="mask1_136_2" style="mask-type:luminance" maskUnits="userSpaceOnUse" x="80" y="31" width="51" height="55">
<path d="M80.2229 31.2427H130.054V85.7959H80.2229V31.2427Z" fill="white"/>
</mask>
<g mask="url(#mask1_136_2)">
<path fill-rule="evenodd" clip-rule="evenodd" d="M130.057 31.2427H118.01C118.146 31.8532 118.223 32.5064 118.223 33.2159V75.3486C118.305 80.3261 114.213 80.135 110.514 79.8394C100.535 79.0419 90.4227 81.5952 80.2538 85.6102V85.7959H130.057V31.2427Z" fill="#D3AC2B"/>
</g>
<path fill-rule="evenodd" clip-rule="evenodd" d="M115.017 28.3415V70.4743C115.092 75.0324 111.49 75.35 107.899 75.0159C94.6691 73.7811 81.6681 78.4919 69.9956 83.7265C58.3231 78.4919 45.3235 73.7811 32.092 75.0159C28.5016 75.35 24.8995 75.0324 24.9739 70.4743V28.3415C24.9739 13.2083 57.0325 21.2383 67.3866 28.5326L66.5437 29.1665L63.0904 31.7625L66.4781 34.309L63.0904 72.8159L69.9956 78.0079L76.9008 72.8159L73.5131 34.309L76.9008 31.7625L73.4489 29.1665L72.6045 28.5313C82.9602 21.2383 115.017 13.2083 115.017 28.3415Z" fill="#D3AC2B"/>
<path d="M21.904 92.1344L20.5273 91.9419V91.1279H23.724L29.4523 99.0424L30.4148 100.758V92.1344L28.9157 91.9419V91.1279H32.9757V91.9419L31.599 92.1344V103.173H30.2398L24.3948 95.0824L23.0765 92.9429V102.216L24.704 102.381V103.173H20.5273V102.381L21.904 102.199V92.1344Z" fill="#F4F3EA"/>
<path d="M39.4079 103.349C38.2369 103.349 37.2467 103.096 36.4388 102.59C35.6294 102.081 35.0184 101.363 34.6071 100.439C34.1944 99.5155 33.9888 98.443 33.9888 97.222C33.9888 95.9831 34.2367 94.8941 34.7354 93.955C35.2371 93.0131 35.9225 92.2857 36.7946 91.7715C37.6652 91.2586 38.6438 91.0015 39.7288 91.0015C41.5167 91.0015 42.8846 91.5336 43.8296 92.5965C44.7746 93.6607 45.2471 95.132 45.2471 97.013C45.2471 98.278 44.9919 99.389 44.4829 100.346C43.9725 101.303 43.2725 102.044 42.3829 102.568C41.4963 103.089 40.5046 103.349 39.4079 103.349ZM39.6296 91.843C38.5169 91.843 37.6404 92.2995 36.9988 93.2125C36.3571 94.1255 36.0363 95.462 36.0363 97.222C36.0363 98.8431 36.3469 100.126 36.9696 101.072C37.5952 102.018 38.4702 102.491 39.5946 102.491C40.6942 102.491 41.5677 102.022 42.2138 101.083C42.8627 100.141 43.1879 98.7895 43.1879 97.0295C43.1879 95.3987 42.8788 94.1255 42.2604 93.2125C41.6421 92.2995 40.7642 91.843 39.6296 91.843Z" fill="#F4F3EA"/>
<path d="M48.6347 92.1344L46.7622 91.9419V91.1279H51.3181L53.7447 98.4264L54.3106 100.483L54.8239 98.4264L57.2331 91.1279H61.7539V91.9419L59.8639 92.1344L61.2347 102.199L62.7339 102.381V103.173H57.7814V102.381L59.3447 102.216L58.5747 94.9394L58.2131 91.8099L57.4897 94.1474L54.6197 102.623H53.4997L50.7172 94.8569L49.7022 91.7934L49.3931 94.9394L48.7047 102.216L50.4081 102.381V103.173H45.9222V102.381L47.3806 102.216L48.6347 92.1344Z" fill="#F4F3EA"/>
<path d="M65.053 92.1344L63.6471 91.9419V91.1279H72.3971L72.6363 93.6414H71.6563L71.1546 92.0684L66.8905 91.9749V96.5454L69.7663 96.4959L70.0055 95.1484H70.9505V98.8774H70.0055L69.7663 97.4859L66.8905 97.4364V102.265L71.7438 102.1L72.6538 100.06L73.6688 100.351L73.1671 103.173H63.6296V102.381L65.053 102.216V92.1344Z" fill="#F4F3EA"/>
<path d="M80.3535 92.1344L79.0118 91.9419V91.1279H81.2985C81.7097 91.1279 82.1166 91.1142 82.5176 91.0839C83.1389 91.0399 83.7251 91.0179 84.2735 91.0179C85.9331 91.0289 87.1085 91.3204 87.7968 91.8924C88.4851 92.4644 88.8293 93.3279 88.8293 94.4829C88.8293 95.3492 88.6164 96.0999 88.1935 96.7379C87.7691 97.3759 87.1814 97.8641 86.4318 98.2009C85.6808 98.5351 84.8174 98.7014 83.8418 98.7014C83.5108 98.7014 83.1724 98.6946 82.8268 98.6794C82.4841 98.6616 82.2726 98.6464 82.191 98.6354V102.199L84.5476 102.381V103.173H78.9243V102.381L80.3535 102.216V92.1344ZM82.191 97.7444C82.5133 97.7967 83.0631 97.8214 83.8418 97.8214C84.7474 97.8214 85.4839 97.5629 86.0526 97.0459C86.6199 96.5289 86.9043 95.6806 86.9043 94.4994C86.9043 93.5727 86.6564 92.9072 86.1635 92.5029C85.6691 92.0959 84.9006 91.8924 83.8593 91.8924C83.4933 91.8924 83.1039 91.9144 82.6926 91.9584C82.4389 91.9804 82.2726 91.9914 82.191 91.9914V97.7444Z" fill="#F4F3EA"/>
<path d="M90.052 102.381L91.4753 102.216V92.1345L90.1337 91.9255V91.128H92.3853C92.7076 91.128 93.1437 91.1087 93.692 91.0675C94.2666 91.0235 94.7143 91.0015 95.0337 91.0015C96.7166 91.0015 97.9168 91.2586 98.6328 91.7715C99.3518 92.2857 99.712 93.0915 99.712 94.1915C99.712 94.9615 99.4845 95.6655 99.0295 96.3035C98.5774 96.9387 97.9576 97.3691 97.1687 97.596C97.5333 97.7802 97.8745 98.0965 98.1895 98.5475C98.5045 98.9957 98.891 99.6186 99.3503 100.417C99.7033 101.022 99.976 101.467 100.167 101.748C100.357 102.028 100.537 102.183 100.71 102.216L101.38 102.381V103.173H99.0062C98.8224 103.173 98.6168 102.989 98.3878 102.617C98.1574 102.243 97.8541 101.666 97.4778 100.885C97.0651 100.035 96.7049 99.3587 96.3987 98.8555C96.0953 98.3536 95.7949 98.0305 95.5003 97.8875C94.271 97.8875 93.5418 97.882 93.3128 97.871V102.216L95.0162 102.381V103.173H90.052V102.381ZM95.3603 97.013C96.0953 97.013 96.6743 96.7875 97.0987 96.3365C97.5216 95.8827 97.7345 95.2062 97.7345 94.307C97.7345 93.5191 97.5187 92.9182 97.087 92.503C96.6583 92.085 95.9174 91.876 94.8645 91.876C94.4941 91.876 94.1266 91.898 93.762 91.942C93.5316 91.964 93.3828 91.975 93.3128 91.975V96.9965C93.4878 97.0075 93.8437 97.013 94.3803 97.013H95.3603Z" fill="#F4F3EA"/>
<path d="M107.364 103.349C106.193 103.349 105.202 103.096 104.394 102.59C103.585 102.081 102.974 101.363 102.563 100.439C102.15 99.5155 101.944 98.443 101.944 97.222C101.944 95.9831 102.192 94.8941 102.691 93.955C103.193 93.0131 103.878 92.2857 104.75 91.7715C105.621 91.2586 106.599 91.0015 107.684 91.0015C109.472 91.0015 110.84 91.5336 111.785 92.5965C112.73 93.6607 113.203 95.132 113.203 97.013C113.203 98.278 112.948 99.389 112.439 100.346C111.928 101.303 111.228 102.044 110.339 102.568C109.452 103.089 108.46 103.349 107.364 103.349ZM107.585 91.843C106.473 91.843 105.596 92.2995 104.954 93.2125C104.313 94.1255 103.992 95.462 103.992 97.222C103.992 98.8431 104.303 100.126 104.925 101.072C105.551 102.018 106.426 102.491 107.55 102.491C108.65 102.491 109.523 102.022 110.169 101.083C110.818 100.141 111.144 98.7895 111.144 97.0295C111.144 95.3987 110.834 94.1255 110.216 93.2125C109.598 92.2995 108.72 91.843 107.585 91.843Z" fill="#F4F3EA"/>
<path d="M113.668 105.395C114.173 105.252 114.626 104.999 115.027 104.636C115.427 104.276 115.718 103.833 115.902 103.305C116.054 102.895 116.15 102.417 116.194 101.869C116.24 101.324 116.264 100.483 116.264 99.3504V92.1509L114.613 91.9419V91.1279H119.67V91.9419L118.107 92.1509V99.4769C118.107 100.332 118.095 101.02 118.072 101.539C118.049 102.056 117.996 102.499 117.915 102.865C117.708 103.73 117.255 104.443 116.555 105.004C115.858 105.565 115.052 105.923 114.135 106.077L113.668 105.395Z" fill="#F4F3EA"/>
</svg>
